# xmcd
#
# Track frame offsets: 
#        150
#        7047
#        26547
#        45420
#        64320
#        81165
#        101712
#        106025
#        122885
#        140540
#        161320
#        182317
#        200100
#
# Disc length: 2713 seconds
#
# Revision: 3
# Processed by: cddbd v1.5.2PL0 Copyright (c) Steve Scherf et al.
# Submitted via: ExactAudioCopy v1.0b3
#
DISCID=a70a970d
DTITLE=Brigette McWilliams - Take Advantage Of Me
DYEAR=1994
DGENRE=R&B
TTITLE0=The Set Up
TTITLE1=Cherish This Love
TTITLE2=Baby Don't Play Me
TTITLE3=Take Advantage Of Me
TTITLE4=No Groove Sweating (A Funky Space Reincarnation)
TTITLE5=Gotta Be Down
TTITLE6=It's On
TTITLE7=I Get The Job Done
TTITLE8=That's On Me
TTITLE9=Blankets Of Playboys
TTITLE10=You Got Someth'n I Want
TTITLE11=(Don't Let Me Catch You) Slippn'
TTITLE12=I'm Ready
EXTD=
EXTT0=
EXTT1=
EXTT2=
EXTT3=
EXTT4=
EXTT5=
EXTT6=
EXTT7=
EXTT8=
EXTT9=
EXTT10=
EXTT11=
EXTT12=
PLAYORDER=
